<?xml version="1.0" encoding="UTF-8"?>
<svg id="g-velo-Mesa_de_trabajo_3-interactions-img" data-name="Capa 1" xmlns="http://www.w3.org/2000/svg" xmlns:xlink="http://www.w3.org/1999/xlink" baseProfile="tiny" version="1.2" viewBox="0 0 475 673">
  <g id="Communes">
    <g id="communes-2023">
      <rect x="272.599" y="482.575" width="160.029" height="160.029" fill="none" stroke-width="0"/>
      <path d="M352.614,482.575c44.191,0,80.014,35.826,80.013,80.016,0,44.191-35.826,80.014-80.016,80.013-4.409,0-8.81-.365-13.159-1.09l13.162-78.925v-80.015Z" fill="#ff7c63" stroke="#fff" stroke-linejoin="bevel" stroke-width=".5"/>
      <path d="M339.452,641.515c-43.589-7.268-73.033-48.496-65.765-92.085,6.433-38.58,39.814-66.855,78.927-66.854v80.015l-13.162,78.925Z" fill="#c71e1d" stroke="#fff" stroke-linejoin="bevel" stroke-width=".5"/>
      <image width="951" height="1376" transform="translate(235.8 342.48) scale(.24)" xlink:href="velo-Mesa_de_trabajo_3-interactions-1.png"/>
      <g isolation="isolate">
        <path d="M387.189,592.43l1.334-.112c.099.649.328,1.137.688,1.464.36.326.793.49,1.302.49.611,0,1.129-.23,1.552-.691s.635-1.072.635-1.835c0-.723-.204-1.296-.61-1.714-.407-.418-.939-.628-1.598-.628-.409,0-.779.094-1.108.279-.329.186-.587.427-.776.723l-1.192-.156,1.001-5.313h5.143v1.214h-4.127l-.557,2.779c.621-.433,1.272-.649,1.954-.649.904,0,1.665.313,2.286.939.621.625.932,1.429.932,2.413,0,.936-.273,1.744-.819,2.426-.663.837-1.569,1.256-2.716,1.256-.941,0-1.709-.263-2.303-.79-.595-.527-.935-1.225-1.02-2.096Z" fill="#fff" stroke-width="0"/>
        <path d="M395.232,592.409l1.269-.169c.146.72.394,1.239.745,1.556.35.318.777.476,1.28.476.598,0,1.102-.207,1.513-.621s.617-.927.617-1.538c0-.583-.19-1.064-.571-1.443s-.865-.568-1.453-.568c-.241,0-.539.047-.896.141l.141-1.115c.084.009.152.014.204.014.541,0,1.028-.141,1.461-.423s.65-.717.65-1.305c0-.466-.158-.851-.473-1.157-.315-.305-.723-.458-1.221-.458-.494,0-.905.155-1.234.465-.33.311-.542.776-.635,1.398l-1.27-.226c.156-.851.508-1.511,1.058-1.979.55-.468,1.234-.701,2.053-.701.564,0,1.084.121,1.559.363.474.242.838.573,1.09.991s.377.863.377,1.333c0,.447-.12.854-.36,1.221-.241.366-.595.659-1.066.875.612.141,1.086.434,1.426.878.338.445.508,1.001.508,1.669,0,.903-.329,1.668-.988,2.296-.658.627-1.49.942-2.497.942-.908,0-1.662-.27-2.261-.812-.599-.541-.942-1.241-1.026-2.102Z" fill="#fff" stroke-width="0"/>
        <path d="M403.501,587.28c0-.738.185-1.366.557-1.883.372-.518.911-.776,1.615-.776.65,0,1.187.231,1.613.695.425.463.638,1.144.638,2.043,0,.875-.215,1.548-.646,2.021-.43.473-.961.709-1.591.709-.626,0-1.146-.233-1.563-.698-.417-.466-.624-1.169-.624-2.11ZM405.708,585.495c-.315,0-.577.136-.786.409-.21.273-.315.774-.315,1.503,0,.663.106,1.13.318,1.4s.473.406.783.406c.32,0,.584-.136.794-.409.209-.273.314-.771.314-1.495,0-.668-.106-1.137-.318-1.408s-.474-.406-.79-.406ZM405.715,595.52l5.659-10.9h1.03l-5.636,10.9h-1.052ZM410.189,592.712c0-.743.185-1.372.557-1.887.372-.514.912-.772,1.623-.772.649,0,1.186.231,1.612.695s.638,1.144.638,2.043c0,.875-.215,1.548-.645,2.021-.431.473-.963.709-1.598.709-.626,0-1.146-.234-1.563-.702-.417-.468-.624-1.17-.624-2.106ZM412.403,590.928c-.32,0-.584.136-.793.409-.21.273-.315.774-.315,1.503,0,.658.106,1.124.318,1.397s.473.409.783.409c.325,0,.592-.136.801-.409s.314-.771.314-1.495c0-.668-.105-1.137-.317-1.408s-.475-.406-.791-.406Z" fill="#fff" stroke-width="0"/>
      </g>
      <g isolation="isolate">
        <path d="M307.595,542.206v-2.476h-4.487v-1.164l4.719-6.703h1.037v6.703h1.397v1.164h-1.397v2.476h-1.269ZM307.595,538.566v-4.663l-3.238,4.663h3.238Z" fill="#fff" stroke-width="0"/>
        <path d="M311.645,533.218v-1.221h6.695v.988c-.658.701-1.311,1.632-1.958,2.794-.646,1.162-1.146,2.357-1.499,3.584-.254.865-.417,1.812-.487,2.843h-1.305c.014-.814.174-1.796.479-2.949.306-1.152.745-2.263,1.316-3.333.571-1.069,1.179-1.971,1.824-2.705h-5.065Z" fill="#fff" stroke-width="0"/>
        <path d="M319.836,534.346c0-.738.185-1.366.557-1.883.372-.518.911-.776,1.615-.776.65,0,1.187.231,1.613.695.425.463.638,1.144.638,2.043,0,.875-.215,1.548-.646,2.021-.43.473-.961.709-1.591.709-.626,0-1.146-.233-1.563-.698-.417-.466-.624-1.169-.624-2.11ZM322.044,532.562c-.315,0-.577.136-.786.409-.21.273-.315.774-.315,1.503,0,.663.106,1.13.318,1.4s.473.406.783.406c.32,0,.584-.136.794-.409.209-.273.314-.771.314-1.495,0-.668-.106-1.137-.318-1.408s-.474-.406-.79-.406ZM322.05,542.587l5.659-10.9h1.03l-5.636,10.9h-1.052ZM326.524,539.779c0-.743.185-1.372.557-1.887.372-.514.912-.772,1.623-.772.649,0,1.186.231,1.612.695s.638,1.144.638,2.043c0,.875-.215,1.548-.645,2.021-.431.473-.963.709-1.598.709-.626,0-1.146-.234-1.563-.702-.417-.468-.624-1.17-.624-2.106ZM328.738,537.994c-.32,0-.584.136-.793.409-.21.273-.315.774-.315,1.503,0,.658.106,1.124.318,1.397s.473.409.783.409c.325,0,.592-.136.801-.409s.314-.771.314-1.495c0-.668-.105-1.137-.317-1.408s-.475-.406-.791-.406Z" fill="#fff" stroke-width="0"/>
      </g>
      <g>
        <path d="M363.326,366.457h3.032v1.283h-5.469l2.827-3.803c.277-.379.51-.707.698-.984s.331-.51.43-.697c.2-.367.301-.697.301-.99,0-.422-.134-.775-.4-1.061-.268-.285-.599-.428-.992-.428-.822,0-1.294.541-1.413,1.623h-1.224c.197-1.906,1.063-2.859,2.601-2.859.741,0,1.363.262,1.866.785.507.523.76,1.172.76,1.945,0,.492-.118.975-.354,1.447-.119.246-.295.538-.524.876-.23.338-.521.737-.873,1.198l-1.266,1.664Z" fill="#000" stroke-width="0"/>
        <path d="M367.745,363.158c0-1.441.303-2.592.907-3.451.541-.777,1.197-1.166,1.967-1.166s1.426.389,1.967,1.166c.604.859.907,2.029.907,3.51s-.303,2.645-.907,3.504c-.541.777-1.195,1.166-1.962,1.166s-1.424-.389-1.972-1.166c-.604-.859-.907-2.047-.907-3.562ZM368.953,363.164c0,1.004.156,1.838.469,2.502.313.652.712.979,1.197.979.481,0,.881-.326,1.197-.979.316-.648.475-1.467.475-2.455s-.158-1.809-.475-2.461c-.316-.648-.716-.973-1.197-.973-.479,0-.875.324-1.191.973-.316.645-.475,1.449-.475,2.414Z" fill="#000" stroke-width="0"/>
        <path d="M376.657,366.457h3.032v1.283h-5.469l2.827-3.803c.277-.379.51-.707.698-.984s.331-.51.43-.697c.2-.367.301-.697.301-.99,0-.422-.134-.775-.4-1.061-.268-.285-.599-.428-.992-.428-.822,0-1.294.541-1.413,1.623h-1.224c.197-1.906,1.063-2.859,2.601-2.859.741,0,1.363.262,1.866.785.507.523.76,1.172.76,1.945,0,.492-.118.975-.354,1.447-.119.246-.295.538-.524.876-.23.338-.521.737-.873,1.198l-1.266,1.664Z" fill="#000" stroke-width="0"/>
        <path d="M383.412,363.539v-1.166c.521,0,.87-.064,1.05-.193.319-.227.479-.59.479-1.09,0-.387-.116-.701-.348-.943-.229-.246-.525-.369-.892-.369-.341,0-.604.092-.791.275-.179.188-.312.504-.4.949h-1.224c.127-.852.387-1.476.78-1.872s.944-.595,1.65-.595c.714,0,1.296.234,1.746.703.45.465.675,1.064.675,1.799,0,.828-.295,1.473-.886,1.934.675.441,1.013,1.158,1.013,2.15,0,.812-.246,1.477-.738,1.992s-1.124.773-1.894.773c-.98,0-1.709-.4-2.184-1.201-.196-.336-.321-.801-.374-1.395h1.187c.063.438.217.772.462,1.005.244.232.562.349.957.349s.726-.146.985-.439c.261-.301.391-.682.391-1.143,0-.609-.195-1.043-.585-1.301-.229-.148-.582-.223-1.061-.223Z" fill="#000" stroke-width="0"/>
      </g>
    </g>
    <g id="communes-2013">
      <rect x="73.064" y="362.809" width="14.778" height="14.778" fill="#ff7c63" stroke-width="0"/>
      <g isolation="isolate">
        <path d="M99.497,374.405v1.07h-5.993c-.009-.268.035-.525.13-.773.152-.409.397-.81.733-1.206s.822-.854,1.456-1.373c.986-.808,1.652-1.449,1.998-1.92.347-.473.52-.919.52-1.339,0-.441-.158-.814-.474-1.117-.315-.303-.727-.454-1.234-.454-.536,0-.966.161-1.287.482s-.485.767-.488,1.336l-1.144-.118c.078-.854.372-1.504.884-1.951.511-.447,1.197-.671,2.059-.671.871,0,1.559.241,2.066.723.508.482.762,1.081.762,1.794,0,.363-.075.719-.223,1.069-.149.351-.395.72-.74,1.108s-.916.919-1.716,1.596c-.667.56-1.097.941-1.286,1.141-.19.2-.347.401-.47.603h4.447Z" fill="#181818" stroke-width="0"/>
        <path d="M101,375.476v-6.568h1.001v.933c.483-.722,1.18-1.082,2.091-1.082.395,0,.759.071,1.092.213.332.142.58.329.745.559.165.231.281.506.347.823.041.207.061.567.061,1.082v4.039h-1.114v-3.996c0-.453-.043-.792-.129-1.018-.087-.224-.24-.404-.461-.538-.221-.133-.479-.201-.776-.201-.474,0-.883.15-1.228.451-.343.301-.516.872-.516,1.713v3.588h-1.113Z" fill="#181818" stroke-width="0"/>
        <path d="M112.306,375.476v-.829c-.417.652-1.03.978-1.837.978-.524,0-1.005-.145-1.444-.434-.44-.288-.78-.691-1.021-1.209-.241-.518-.361-1.112-.361-1.784,0-.655.109-1.251.327-1.784s.547-.943.984-1.228.925-.427,1.466-.427c.396,0,.748.083,1.058.251.309.167.561.384.755.652v-3.253h1.107v9.068h-1.033ZM108.787,372.197c0,.842.178,1.47.532,1.886s.773.625,1.256.625c.486,0,.899-.199,1.24-.597s.51-1.005.51-1.822c0-.899-.173-1.558-.519-1.979-.347-.421-.774-.631-1.28-.631-.495,0-.908.202-1.24.606s-.498,1.041-.498,1.911Z" fill="#181818" stroke-width="0"/>
        <path d="M118.164,373.515l1.101-.173c.061.441.234.78.517,1.014.282.235.677.353,1.183.353.512,0,.891-.105,1.139-.313.247-.207.371-.452.371-.733,0-.251-.11-.449-.328-.593-.153-.099-.532-.224-1.137-.377-.817-.206-1.382-.384-1.699-.535-.315-.15-.554-.359-.718-.625-.162-.266-.244-.559-.244-.882,0-.292.067-.564.201-.813.133-.25.316-.457.547-.622.173-.128.408-.235.707-.325.299-.088.62-.133.962-.133.515,0,.967.074,1.357.223.39.148.678.349.864.603.185.254.313.593.383,1.018l-1.088.149c-.049-.338-.192-.602-.43-.792-.236-.19-.571-.284-1.005-.284-.511,0-.876.084-1.095.253-.218.169-.327.367-.327.593,0,.145.045.275.136.39.091.12.233.218.427.297.111.042.44.136.984.285.787.21,1.336.383,1.648.516.312.134.556.329.734.585.178.255.266.573.266.952,0,.372-.109.721-.325,1.048-.217.328-.529.581-.937.761s-.871.269-1.386.269c-.854,0-1.505-.178-1.952-.532s-.733-.881-.856-1.577Z" fill="#181818" stroke-width="0"/>
        <path d="M129.439,373.36l1.15.142c-.181.672-.518,1.194-1.008,1.565-.491.371-1.118.557-1.88.557-.961,0-1.722-.296-2.286-.888-.563-.592-.844-1.421-.844-2.49,0-1.105.285-1.962.854-2.573.57-.61,1.308-.916,2.214-.916.879,0,1.597.299,2.153.897.558.598.835,1.439.835,2.523,0,.066-.002.165-.005.297h-4.899c.041.722.245,1.274.612,1.658s.825.576,1.373.576c.408,0,.756-.107,1.045-.321.289-.215.518-.557.687-1.027ZM125.783,371.561h3.668c-.049-.553-.189-.967-.42-1.244-.355-.428-.814-.643-1.379-.643-.512,0-.942.171-1.291.513-.349.342-.541.8-.578,1.373Z" fill="#181818" stroke-width="0"/>
        <path d="M131.987,375.476v-6.568h.996v.922c.207-.322.481-.581.823-.776.342-.196.732-.294,1.169-.294.487,0,.885.101,1.197.303.311.202.531.485.659.848.519-.767,1.195-1.15,2.028-1.15.651,0,1.153.18,1.503.542.35.36.525.916.525,1.666v4.509h-1.107v-4.138c0-.445-.036-.766-.108-.962-.072-.196-.203-.353-.393-.473s-.412-.179-.668-.179c-.462,0-.846.154-1.15.461-.305.307-.457.799-.457,1.475v3.816h-1.114v-4.268c0-.495-.091-.866-.272-1.114-.182-.247-.479-.371-.891-.371-.313,0-.603.082-.869.247s-.459.406-.578.723c-.12.318-.18.775-.18,1.373v3.408h-1.113Z" fill="#181818" stroke-width="0"/>
        <path d="M147.035,373.36l1.151.142c-.182.672-.518,1.194-1.008,1.565-.491.371-1.118.557-1.881.557-.961,0-1.722-.296-2.285-.888s-.845-1.421-.845-2.49c0-1.105.286-1.962.854-2.573.57-.61,1.308-.916,2.215-.916.878,0,1.596.299,2.153.897s.835,1.439.835,2.523c0,.066-.003.165-.006.297h-4.899c.041.722.245,1.274.612,1.658s.825.576,1.374.576c.408,0,.756-.107,1.045-.321.288-.215.518-.557.686-1.027ZM143.38,371.561h3.668c-.05-.553-.19-.967-.421-1.244-.355-.428-.814-.643-1.379-.643-.512,0-.942.171-1.29.513-.349.342-.542.8-.579,1.373Z" fill="#181818" stroke-width="0"/>
        <path d="M149.139,373.515l1.101-.173c.062.441.234.78.516,1.014.282.235.678.353,1.185.353.511,0,.89-.105,1.137-.313.248-.207.372-.452.372-.733,0-.251-.11-.449-.328-.593-.152-.099-.531-.224-1.138-.377-.816-.206-1.382-.384-1.697-.535-.316-.15-.555-.359-.718-.625-.163-.266-.245-.559-.245-.882,0-.292.067-.564.201-.813.134-.25.316-.457.547-.622.173-.128.41-.235.709-.325.298-.088.619-.133.962-.133.515,0,.968.074,1.358.223.389.148.677.349.862.603.186.254.314.593.384,1.018l-1.089.149c-.049-.338-.193-.602-.429-.792-.238-.19-.573-.284-1.005-.284-.512,0-.877.084-1.095.253-.219.169-.328.367-.328.593,0,.145.046.275.136.39.09.12.233.218.427.297.111.042.439.136.984.285.787.21,1.337.383,1.648.516.311.134.556.329.733.585.177.255.265.573.265.952,0,.372-.107.721-.324,1.048-.217.328-.53.581-.938.761s-.87.269-1.385.269c-.854,0-1.504-.178-1.951-.532-.448-.355-.733-.881-.857-1.577Z" fill="#181818" stroke-width="0"/>
        <path d="M158.348,374.48l.161.983c-.313.066-.593.099-.842.099-.404,0-.718-.064-.94-.192-.222-.128-.379-.296-.469-.504-.091-.207-.136-.646-.136-1.314v-3.779h-.816v-.865h.816v-1.627l1.107-.668v2.295h1.12v.865h-1.12v3.841c0,.318.02.522.059.612.039.091.103.163.191.217.089.054.216.081.381.081.124,0,.286-.014.489-.043Z" fill="#181818" stroke-width="0"/>
        <path d="M163.933,373.36l1.151.142c-.182.672-.518,1.194-1.008,1.565-.491.371-1.118.557-1.881.557-.961,0-1.722-.296-2.285-.888s-.845-1.421-.845-2.49c0-1.105.286-1.962.854-2.573.57-.61,1.308-.916,2.215-.916.878,0,1.596.299,2.153.897s.835,1.439.835,2.523c0,.066-.003.165-.006.297h-4.899c.041.722.245,1.274.612,1.658s.825.576,1.374.576c.408,0,.756-.107,1.045-.321.288-.215.518-.557.686-1.027ZM160.277,371.561h3.668c-.05-.553-.19-.967-.421-1.244-.355-.428-.814-.643-1.379-.643-.512,0-.942.171-1.29.513-.349.342-.542.8-.579,1.373Z" fill="#181818" stroke-width="0"/>
        <path d="M166.469,375.476v-6.568h1.001v.996c.256-.466.491-.774.709-.922.216-.149.454-.223.714-.223.375,0,.757.12,1.144.359l-.384,1.033c-.272-.161-.544-.241-.816-.241-.243,0-.462.073-.655.219-.194.147-.332.35-.414.61-.124.396-.186.829-.186,1.299v3.439h-1.113Z" fill="#181818" stroke-width="0"/>
      </g>
      <rect x="73.064" y="344.89" width="14.778" height="14.778" fill="#c71e1d" stroke-width="0"/>
      <g isolation="isolate">
        <path d="M97.839,357.557h-1.114v-7.094c-.268.256-.619.512-1.054.767-.435.256-.825.448-1.171.576v-1.076c.622-.292,1.166-.647,1.632-1.064s.796-.82.99-1.212h.718v9.104Z" fill="#181818" stroke-width="0"/>
        <path d="M100.555,355.597l1.101-.173c.062.441.234.78.516,1.014.282.235.678.353,1.185.353.511,0,.89-.105,1.137-.313.248-.207.372-.452.372-.733,0-.251-.11-.449-.328-.593-.152-.099-.531-.224-1.138-.377-.816-.206-1.382-.384-1.697-.535-.316-.15-.555-.359-.718-.625-.163-.266-.245-.559-.245-.882,0-.292.067-.564.201-.813.134-.25.316-.457.547-.622.173-.128.41-.235.709-.325.298-.088.619-.133.962-.133.515,0,.968.074,1.358.223.389.148.677.349.862.603.186.254.314.593.384,1.018l-1.089.149c-.049-.338-.193-.602-.429-.792-.238-.19-.573-.284-1.005-.284-.512,0-.877.084-1.095.253-.219.169-.328.367-.328.593,0,.145.046.275.136.39.09.12.233.218.427.297.111.042.439.136.984.285.787.21,1.337.383,1.648.516.311.134.556.329.733.585.177.255.265.573.265.952,0,.372-.107.721-.324,1.048-.217.328-.53.581-.938.761s-.87.269-1.385.269c-.854,0-1.504-.178-1.951-.532-.448-.355-.733-.881-.857-1.577Z" fill="#181818" stroke-width="0"/>
        <path d="M109.764,356.562l.161.983c-.313.066-.593.099-.842.099-.404,0-.718-.064-.94-.192-.222-.128-.379-.296-.469-.504-.091-.207-.136-.646-.136-1.314v-3.779h-.816v-.865h.816v-1.627l1.107-.668v2.295h1.12v.865h-1.12v3.841c0,.318.02.522.059.612.039.091.103.163.191.217.089.054.216.081.381.081.124,0,.286-.014.489-.043Z" fill="#181818" stroke-width="0"/>
        <path d="M113.927,355.597l1.1-.173c.062.441.235.78.517,1.014.282.235.677.353,1.184.353.511,0,.89-.105,1.138-.313.247-.207.371-.452.371-.733,0-.251-.109-.449-.328-.593-.152-.099-.531-.224-1.137-.377-.816-.206-1.382-.384-1.698-.535s-.555-.359-.718-.625-.244-.559-.244-.882c0-.292.066-.564.201-.813.134-.25.316-.457.547-.622.173-.128.409-.235.708-.325.298-.088.62-.133.962-.133.515,0,.968.074,1.358.223.39.148.678.349.863.603.185.254.313.593.383,1.018l-1.089.149c-.049-.338-.192-.602-.429-.792-.237-.19-.572-.284-1.005-.284-.511,0-.876.084-1.095.253s-.327.367-.327.593c0,.145.045.275.136.39.09.12.233.218.427.297.111.042.439.136.983.285.787.21,1.337.383,1.648.516.312.134.556.329.734.585.177.255.265.573.265.952,0,.372-.108.721-.325,1.048-.216.328-.529.581-.937.761s-.871.269-1.386.269c-.854,0-1.504-.178-1.951-.532-.448-.355-.733-.881-.856-1.577Z" fill="#181818" stroke-width="0"/>
        <path d="M125.202,355.442l1.151.142c-.182.672-.518,1.194-1.008,1.565-.491.371-1.118.557-1.881.557-.961,0-1.722-.296-2.285-.888s-.845-1.421-.845-2.49c0-1.105.286-1.962.854-2.573.57-.61,1.308-.916,2.215-.916.878,0,1.596.299,2.153.897s.835,1.439.835,2.523c0,.066-.003.165-.006.297h-4.899c.041.722.245,1.274.612,1.658s.825.576,1.374.576c.408,0,.756-.107,1.045-.321.288-.215.518-.557.686-1.027ZM121.546,353.642h3.668c-.05-.553-.19-.967-.421-1.244-.355-.428-.814-.643-1.379-.643-.512,0-.942.171-1.29.513-.349.342-.542.8-.579,1.373Z" fill="#181818" stroke-width="0"/>
        <path d="M127.751,357.557v-6.568h.996v.922c.207-.322.48-.581.822-.776.343-.196.733-.294,1.17-.294.486,0,.885.101,1.197.303.311.202.53.485.658.848.52-.767,1.196-1.15,2.028-1.15.652,0,1.153.18,1.503.542.35.36.526.916.526,1.666v4.509h-1.108v-4.138c0-.445-.036-.766-.107-.962-.073-.196-.204-.353-.393-.473-.19-.12-.413-.179-.668-.179-.462,0-.846.154-1.151.461-.304.307-.457.799-.457,1.475v3.816h-1.114v-4.268c0-.495-.09-.866-.272-1.114-.181-.247-.478-.371-.891-.371-.313,0-.602.082-.869.247-.265.165-.458.406-.578.723-.119.318-.179.775-.179,1.373v3.408h-1.113Z" fill="#181818" stroke-width="0"/>
        <path d="M142.799,355.442l1.15.142c-.182.672-.517,1.194-1.008,1.565-.491.371-1.117.557-1.881.557-.961,0-1.722-.296-2.285-.888s-.844-1.421-.844-2.49c0-1.105.285-1.962.854-2.573s1.307-.916,2.215-.916c.878,0,1.596.299,2.153.897.556.598.835,1.439.835,2.523,0,.066-.003.165-.007.297h-4.899c.042.722.246,1.274.612,1.658.367.383.825.576,1.374.576.408,0,.757-.107,1.046-.321.287-.215.517-.557.686-1.027ZM139.143,353.642h3.668c-.05-.553-.19-.967-.422-1.244-.354-.428-.814-.643-1.379-.643-.511,0-.941.171-1.289.513-.349.342-.542.8-.579,1.373Z" fill="#181818" stroke-width="0"/>
        <path d="M144.901,355.597l1.102-.173c.061.441.233.78.516,1.014.282.235.678.353,1.184.353.512,0,.891-.105,1.138-.313.247-.207.372-.452.372-.733,0-.251-.111-.449-.328-.593-.153-.099-.532-.224-1.138-.377-.817-.206-1.382-.384-1.698-.535s-.554-.359-.718-.625-.245-.559-.245-.882c0-.292.068-.564.201-.813.133-.25.316-.457.547-.622.173-.128.409-.235.708-.325.299-.088.619-.133.962-.133.515,0,.967.074,1.357.223.389.148.678.349.863.603.186.254.314.593.383,1.018l-1.088.149c-.049-.338-.193-.602-.43-.792-.237-.19-.572-.284-1.005-.284-.512,0-.876.084-1.095.253s-.328.367-.328.593c0,.145.046.275.136.39.091.12.233.218.427.297.112.042.44.136.984.285.787.21,1.336.383,1.648.516.311.134.556.329.733.585.178.255.266.573.266.952,0,.372-.108.721-.324,1.048-.218.328-.53.581-.938.761s-.87.269-1.385.269c-.854,0-1.505-.178-1.952-.532s-.733-.881-.857-1.577Z" fill="#181818" stroke-width="0"/>
        <path d="M154.112,356.562l.16.983c-.313.066-.593.099-.841.099-.404,0-.718-.064-.94-.192-.222-.128-.379-.296-.47-.504-.09-.207-.136-.646-.136-1.314v-3.779h-.816v-.865h.816v-1.627l1.107-.668v2.295h1.12v.865h-1.12v3.841c0,.318.02.522.06.612.039.091.103.163.191.217.089.054.215.081.38.081.124,0,.287-.014.49-.043Z" fill="#181818" stroke-width="0"/>
        <path d="M159.696,355.442l1.15.142c-.182.672-.517,1.194-1.008,1.565-.491.371-1.117.557-1.881.557-.961,0-1.722-.296-2.285-.888s-.844-1.421-.844-2.49c0-1.105.285-1.962.854-2.573s1.307-.916,2.215-.916c.878,0,1.596.299,2.153.897.556.598.835,1.439.835,2.523,0,.066-.003.165-.007.297h-4.899c.042.722.246,1.274.612,1.658.367.383.825.576,1.374.576.408,0,.757-.107,1.046-.321.287-.215.517-.557.686-1.027ZM156.041,353.642h3.668c-.05-.553-.19-.967-.422-1.244-.354-.428-.814-.643-1.379-.643-.511,0-.941.171-1.289.513-.349.342-.542.8-.579,1.373Z" fill="#181818" stroke-width="0"/>
        <path d="M162.232,357.557v-6.568h1.001v.996c.256-.466.491-.774.709-.922.216-.149.454-.223.714-.223.375,0,.757.12,1.144.359l-.384,1.033c-.272-.161-.544-.241-.816-.241-.243,0-.462.073-.655.219-.194.147-.332.35-.414.61-.124.396-.186.829-.186,1.299v3.439h-1.113Z" fill="#181818" stroke-width="0"/>
      </g>
      <rect x="26.444" y="141.322" width="159.764" height="159.764" fill="none" stroke-width="0"/>
      <path d="M106.325,141.322c45.369,0,81.904,37.821,79.795,83.654-1.883,40.924-35.098,74.14-76.022,76.023-45.833,2.109-83.655-34.426-83.655-79.795,0-15.517,4.519-30.698,13.006-43.689l66.876,43.689v-79.882Z" fill="#ff7c63" stroke="#fff" stroke-linejoin="bevel" stroke-width=".5"/>
      <path d="M39.691,177.515c14.752-22.581,39.903-36.193,66.876-36.193v79.882l-66.876-43.689Z" fill="#c71e1d" stroke="#fff" stroke-linejoin="bevel" stroke-width=".5"/>
      <image width="952" height="1376" transform="translate(-11.16 .48) scale(.24)" xlink:href="velo-Mesa_de_trabajo_3-interactions-2.png"/>
      <g isolation="isolate">
        <path d="M72.378,183.656h-1.27v-8.092c-.306.292-.707.583-1.204.875-.496.292-.941.51-1.336.655v-1.228c.711-.333,1.331-.738,1.863-1.213s.907-.936,1.128-1.382h.82v10.384Z" fill="#fff" stroke-width="0"/>
        <path d="M82.219,175.846l-1.263.099c-.112-.499-.272-.861-.479-1.086-.343-.362-.767-.543-1.27-.543-.405,0-.76.113-1.065.338-.4.292-.715.718-.945,1.277-.23.56-.35,1.357-.36,2.391.306-.465.68-.811,1.122-1.037.442-.225.905-.338,1.389-.338.847,0,1.568.312,2.163.935s.893,1.428.893,2.416c0,.649-.14,1.252-.42,1.809-.281.558-.665.984-1.154,1.281-.489.296-1.045.444-1.665.444-1.058,0-1.921-.389-2.589-1.167-.668-.778-1.002-2.061-1.002-3.849,0-1.999.369-3.452,1.109-4.36.644-.791,1.512-1.185,2.603-1.185.813,0,1.48.228,2,.684.52.456.831,1.086.935,1.891ZM77.033,180.305c0,.438.094.856.279,1.256.185.4.445.705.78.914s.684.314,1.052.314c.536,0,.996-.216,1.382-.649s.578-1.021.578-1.764c0-.715-.19-1.278-.571-1.689s-.86-.617-1.438-.617c-.575,0-1.061.206-1.461.617s-.6.951-.6,1.619Z" fill="#fff" stroke-width="0"/>
        <path d="M83.905,175.796c0-.738.186-1.366.557-1.883.372-.518.911-.776,1.616-.776.649,0,1.186.231,1.612.695s.638,1.144.638,2.043c0,.875-.215,1.548-.645,2.021-.431.473-.961.709-1.591.709-.626,0-1.147-.233-1.563-.698-.417-.466-.625-1.169-.625-2.11ZM86.112,174.012c-.315,0-.576.136-.786.409-.209.273-.314.774-.314,1.503,0,.663.105,1.13.318,1.4.211.27.473.406.782.406.32,0,.585-.136.794-.409s.315-.771.315-1.495c0-.668-.106-1.137-.318-1.408s-.475-.406-.791-.406ZM86.12,184.037l5.658-10.9h1.03l-5.637,10.9h-1.051ZM90.593,181.229c0-.743.185-1.372.558-1.887.371-.514.912-.772,1.622-.772.65,0,1.187.231,1.612.695.426.463.639,1.144.639,2.043,0,.875-.216,1.548-.646,2.021s-.962.709-1.598.709c-.626,0-1.146-.234-1.563-.702-.416-.468-.624-1.17-.624-2.106ZM92.808,179.444c-.32,0-.585.136-.794.409s-.314.774-.314,1.503c0,.658.106,1.124.317,1.397.213.273.473.409.784.409.324,0,.591-.136.801-.409.209-.273.313-.771.313-1.495,0-.668-.105-1.137-.317-1.408s-.475-.406-.79-.406Z" fill="#fff" stroke-width="0"/>
      </g>
      <g isolation="isolate">
        <path d="M141.5,237.811c-.526-.193-.917-.468-1.171-.825-.254-.358-.381-.786-.381-1.285,0-.752.27-1.385.811-1.898s1.26-.769,2.159-.769c.904,0,1.63.262,2.181.786.549.525.825,1.163.825,1.915,0,.479-.126.897-.377,1.252s-.634.629-1.146.822c.634.207,1.118.541,1.449,1.001s.497,1.012.497,1.651c0,.884-.313,1.627-.939,2.229s-1.449.903-2.469.903-1.844-.302-2.469-.906c-.626-.604-.939-1.358-.939-2.261,0-.672.17-1.235.512-1.689.34-.454.826-.763,1.456-.928ZM140.837,240.435c0,.362.086.712.258,1.051.172.339.427.601.765.786.338.186.704.279,1.093.279.607,0,1.109-.195,1.503-.585.395-.391.593-.887.593-1.489,0-.612-.203-1.117-.61-1.518-.407-.4-.916-.599-1.528-.599-.598,0-1.092.197-1.485.593s-.589.889-.589,1.482ZM141.246,235.659c0,.489.158.888.473,1.199.315.311.724.466,1.228.466.49,0,.89-.154,1.203-.462.313-.309.469-.686.469-1.132,0-.466-.161-.858-.484-1.175-.321-.318-.723-.476-1.202-.476-.485,0-.887.155-1.207.465-.32.311-.479.683-.479,1.115Z" fill="#fff" stroke-width="0"/>
        <path d="M151.652,243.419v-2.476h-4.486v-1.164l4.719-6.703h1.037v6.703h1.398v1.164h-1.398v2.476h-1.27ZM151.652,239.779v-4.663l-3.237,4.663h3.237Z" fill="#fff" stroke-width="0"/>
        <path d="M155.856,235.559c0-.738.186-1.366.558-1.883.372-.518.91-.776,1.615-.776.65,0,1.187.231,1.612.695.427.463.639,1.144.639,2.043,0,.875-.216,1.548-.646,2.021s-.961.709-1.591.709c-.626,0-1.147-.233-1.563-.698-.416-.466-.625-1.169-.625-2.11ZM158.065,233.775c-.315,0-.577.136-.787.409-.209.273-.313.774-.313,1.503,0,.663.105,1.13.317,1.4s.473.406.783.406c.32,0,.585-.136.794-.409s.314-.771.314-1.495c0-.668-.106-1.137-.317-1.408-.213-.27-.476-.406-.791-.406ZM158.072,243.8l5.659-10.9h1.03l-5.637,10.9h-1.051ZM162.545,240.992c0-.743.185-1.372.557-1.887.372-.514.912-.772,1.623-.772.649,0,1.186.231,1.612.695.425.463.638,1.144.638,2.043,0,.875-.215,1.548-.645,2.021s-.963.709-1.598.709c-.626,0-1.146-.234-1.563-.702-.417-.468-.624-1.17-.624-2.106ZM164.76,239.207c-.32,0-.584.136-.793.409s-.315.774-.315,1.503c0,.658.106,1.124.318,1.397s.473.409.783.409c.324,0,.591-.136.801-.409.209-.273.314-.771.314-1.495,0-.668-.105-1.137-.318-1.408-.211-.27-.474-.406-.79-.406Z" fill="#fff" stroke-width="0"/>
      </g>
      <g>
        <path d="M115.443,24.345h3.032v1.283h-5.468l2.827-3.803c.277-.379.51-.707.699-.984.188-.277.331-.51.43-.697.2-.367.3-.697.3-.99,0-.422-.133-.775-.4-1.061-.268-.285-.598-.428-.992-.428-.823,0-1.294.541-1.413,1.623h-1.224c.197-1.906,1.063-2.859,2.6-2.859.742,0,1.364.262,1.867.785.506.523.759,1.172.759,1.945,0,.492-.118.975-.354,1.447-.119.246-.294.538-.524.876-.23.338-.521.737-.873,1.198l-1.266,1.664Z" fill="#000" stroke-width="0"/>
        <path d="M119.863,21.046c0-1.441.302-2.592.907-3.451.542-.777,1.197-1.166,1.967-1.166s1.425.389,1.967,1.166c.604.859.907,2.029.907,3.51s-.303,2.645-.907,3.504c-.542.777-1.195,1.166-1.962,1.166s-1.424-.389-1.972-1.166c-.604-.859-.907-2.047-.907-3.562ZM121.07,21.052c0,1.004.156,1.838.469,2.502.313.652.712.979,1.197.979.481,0,.88-.326,1.197-.979.316-.648.475-1.467.475-2.455s-.158-1.809-.475-2.461c-.316-.648-.715-.973-1.197-.973-.479,0-.875.324-1.192.973-.316.645-.475,1.449-.475,2.414Z" fill="#000" stroke-width="0"/>
        <path d="M128.163,17.858h-1.408l.675-1.277h1.961v9.047h-1.229v-7.77Z" fill="#000" stroke-width="0"/>
        <path d="M133.921,21.427v-1.166c.52,0,.87-.064,1.049-.193.32-.227.48-.59.48-1.09,0-.387-.116-.701-.348-.943-.229-.246-.525-.369-.891-.369-.341,0-.604.092-.791.275-.179.188-.313.504-.401.949h-1.223c.126-.852.387-1.476.78-1.872s.944-.595,1.65-.595c.714,0,1.295.234,1.746.703.45.465.675,1.064.675,1.799,0,.828-.295,1.473-.886,1.934.675.441,1.013,1.158,1.013,2.15,0,.812-.246,1.477-.738,1.992s-1.124.773-1.893.773c-.981,0-1.709-.4-2.184-1.201-.197-.336-.321-.801-.374-1.395h1.187c.063.438.217.772.461,1.005.244.232.563.349.957.349.397,0,.726-.146.986-.439.26-.301.391-.682.391-1.143,0-.609-.195-1.043-.585-1.301-.229-.148-.582-.223-1.06-.223Z" fill="#000" stroke-width="0"/>
      </g>
    </g>
    <g id="communes-2018">
      <rect x="271.716" y="140.665" width="160.029" height="160.029" fill="none" stroke-width="0"/>
      <path d="M351.73,140.665c44.191,0,80.015,35.823,80.015,80.014,0,44.191-35.823,80.015-80.014,80.015-44.191,0-80.015-35.823-80.015-80.014,0-24.676,11.385-47.971,30.854-63.132l49.16,63.131v-80.015Z" fill="#ff7c63" stroke="#fff" stroke-linejoin="bevel" stroke-width=".5"/>
      <path d="M302.57,157.548c14.051-10.942,31.351-16.883,49.16-16.883v80.015l-49.16-63.131Z" fill="#c71e1d" stroke="#fff" stroke-linejoin="bevel" stroke-width=".5"/>
      <image width="952" height="1376" transform="translate(234.6) scale(.24)" xlink:href="velo-Mesa_de_trabajo_3-interactions-3.png"/>
      <g isolation="isolate">
        <path d="M394.591,238.023c-.527-.193-.916-.468-1.171-.825-.253-.358-.381-.786-.381-1.285,0-.752.27-1.385.811-1.898.542-.513,1.262-.769,2.159-.769.903,0,1.63.262,2.18.786.551.525.825,1.163.825,1.915,0,.479-.126.897-.377,1.252-.252.355-.634.629-1.148.822.636.207,1.119.541,1.45,1.001s.497,1.012.497,1.651c0,.884-.313,1.627-.938,2.229-.626.602-1.449.903-2.47.903s-1.844-.302-2.47-.906-.938-1.358-.938-2.261c0-.672.17-1.235.511-1.689.342-.454.826-.763,1.457-.928ZM393.928,240.648c0,.362.086.712.258,1.051.172.339.427.601.766.786.338.186.702.279,1.093.279.606,0,1.107-.195,1.502-.585.395-.391.593-.887.593-1.489,0-.612-.203-1.117-.61-1.518-.406-.4-.916-.599-1.527-.599-.598,0-1.092.197-1.485.593s-.589.889-.589,1.482ZM394.338,235.871c0,.489.156.888.473,1.199.315.311.723.466,1.228.466.488,0,.889-.154,1.202-.462.313-.309.469-.686.469-1.132,0-.466-.162-.858-.483-1.175-.323-.318-.723-.476-1.204-.476-.484,0-.886.155-1.205.465-.32.311-.479.683-.479,1.115Z" fill="#fff" stroke-width="0"/>
        <path d="M400.863,241.24l1.22-.113c.103.574.301.99.593,1.249s.666.388,1.122.388c.39,0,.732-.089,1.026-.268.293-.179.535-.417.723-.716.188-.299.345-.702.473-1.211.127-.508.19-1.025.19-1.552,0-.057-.003-.141-.007-.254-.255.405-.602.733-1.041.984-.44.252-.916.377-1.429.377-.856,0-1.58-.31-2.173-.932-.593-.621-.888-1.439-.888-2.455,0-1.048.309-1.892.927-2.533.619-.639,1.394-.959,2.325-.959.672,0,1.288.181,1.845.543s.98.878,1.27,1.548c.289.67.434,1.641.434,2.91,0,1.322-.144,2.374-.43,3.157s-.713,1.379-1.281,1.788c-.566.41-1.231.614-1.993.614-.808,0-1.469-.224-1.983-.673-.512-.449-.82-1.081-.923-1.894ZM406.063,236.676c0-.729-.195-1.308-.582-1.736-.389-.428-.854-.642-1.4-.642-.564,0-1.056.23-1.475.691-.419.462-.628,1.058-.628,1.792,0,.659.199,1.194.597,1.605s.888.617,1.471.617c.588,0,1.071-.206,1.45-.617.377-.411.568-.982.568-1.71Z" fill="#fff" stroke-width="0"/>
        <path d="M408.948,235.772c0-.738.185-1.366.557-1.883.372-.518.911-.776,1.616-.776.649,0,1.186.231,1.612.695.425.463.638,1.144.638,2.043,0,.875-.214,1.548-.644,2.021-.431.473-.961.709-1.591.709-.626,0-1.146-.233-1.563-.698-.417-.466-.624-1.169-.624-2.11ZM411.156,233.988c-.315,0-.577.136-.786.409s-.315.774-.315,1.503c0,.663.106,1.13.318,1.4s.473.406.783.406c.32,0,.584-.136.793-.409s.315-.771.315-1.495c0-.668-.105-1.137-.318-1.408-.211-.27-.474-.406-.79-.406ZM411.164,244.012l5.657-10.9h1.03l-5.636,10.9h-1.051ZM415.636,241.204c0-.743.186-1.372.558-1.887.372-.514.913-.772,1.622-.772.65,0,1.187.231,1.613.695s.638,1.144.638,2.043c0,.875-.215,1.548-.646,2.021-.43.473-.962.709-1.597.709-.626,0-1.147-.234-1.563-.702-.416-.468-.625-1.17-.625-2.106ZM417.851,239.42c-.32,0-.584.136-.794.409-.209.273-.313.774-.313,1.503,0,.658.105,1.124.317,1.397s.473.409.783.409c.325,0,.592-.136.801-.409s.314-.771.314-1.495c0-.668-.106-1.137-.317-1.408-.213-.27-.475-.406-.791-.406Z" fill="#fff" stroke-width="0"/>
      </g>
      <g isolation="isolate">
        <path d="M323.57,176.728h-1.27v-8.092c-.306.292-.706.583-1.203.875-.496.292-.941.51-1.337.655v-1.228c.711-.333,1.331-.738,1.864-1.213.53-.475.907-.936,1.128-1.382h.819v10.384Z" fill="#fff" stroke-width="0"/>
        <path d="M330.533,176.728h-1.27v-8.092c-.305.292-.706.583-1.202.875s-.942.51-1.337.655v-1.228c.71-.333,1.33-.738,1.863-1.213.531-.475.908-.936,1.129-1.382h.818v10.384Z" fill="#fff" stroke-width="0"/>
        <path d="M334.025,168.868c0-.738.185-1.366.558-1.883.371-.518.91-.776,1.615-.776.65,0,1.187.231,1.612.695.426.463.638,1.144.638,2.043,0,.875-.215,1.548-.645,2.021s-.961.709-1.591.709c-.626,0-1.146-.233-1.563-.698-.416-.466-.624-1.169-.624-2.11ZM336.234,167.084c-.316,0-.578.136-.787.409s-.314.774-.314,1.503c0,.663.106,1.13.317,1.4.213.27.473.406.784.406.32,0,.584-.136.793-.409s.314-.771.314-1.495c0-.668-.105-1.137-.317-1.408s-.475-.406-.79-.406ZM336.241,177.109l5.658-10.9h1.03l-5.636,10.9h-1.051ZM340.713,174.301c0-.743.186-1.372.557-1.887.372-.514.913-.772,1.623-.772.649,0,1.186.231,1.613.695.425.463.638,1.144.638,2.043,0,.875-.214,1.548-.645,2.021-.43.473-.963.709-1.597.709-.626,0-1.147-.234-1.563-.702-.417-.468-.625-1.17-.625-2.106ZM342.928,172.516c-.32,0-.583.136-.793.409-.209.273-.314.774-.314,1.503,0,.658.105,1.124.318,1.397.211.273.473.409.782.409.325,0,.592-.136.801-.409s.315-.771.315-1.495c0-.668-.106-1.137-.318-1.408s-.474-.406-.791-.406Z" fill="#fff" stroke-width="0"/>
      </g>
      <g>
        <path d="M364.148,25.457h3.032v1.283h-5.468l2.827-3.803c.277-.379.51-.707.699-.984.188-.277.331-.51.43-.697.2-.367.3-.697.3-.99,0-.422-.133-.775-.4-1.061-.268-.285-.598-.428-.992-.428-.823,0-1.294.541-1.413,1.623h-1.224c.197-1.906,1.063-2.859,2.6-2.859.742,0,1.364.262,1.867.785.506.523.759,1.172.759,1.945,0,.492-.118.975-.354,1.447-.119.246-.294.538-.524.876-.23.338-.521.737-.873,1.198l-1.266,1.664Z" fill="#000" stroke-width="0"/>
        <path d="M368.568,22.158c0-1.441.302-2.592.907-3.451.541-.777,1.197-1.166,1.967-1.166s1.426.389,1.967,1.166c.604.859.907,2.029.907,3.51s-.303,2.645-.907,3.504c-.541.777-1.195,1.166-1.962,1.166s-1.424-.389-1.972-1.166c-.604-.859-.907-2.047-.907-3.562ZM369.775,22.164c0,1.004.156,1.838.469,2.502.313.652.712.979,1.197.979.481,0,.881-.326,1.197-.979.316-.648.475-1.467.475-2.455s-.158-1.809-.475-2.461c-.316-.648-.716-.973-1.197-.973-.479,0-.875.324-1.191.973-.316.645-.475,1.449-.475,2.414Z" fill="#000" stroke-width="0"/>
        <path d="M376.868,18.971h-1.408l.675-1.277h1.962v9.047h-1.229v-7.77Z" fill="#000" stroke-width="0"/>
        <path d="M381.672,22.035c-.598-.469-.896-1.107-.896-1.916,0-.734.227-1.348.68-1.84.457-.492,1.025-.738,1.703-.738s1.238.246,1.688.738c.45.488.676,1.104.676,1.846,0,.777-.298,1.412-.892,1.904.327.195.584.48.77.855.19.375.285.797.285,1.266,0,.801-.235,1.457-.707,1.969-.471.512-1.073.768-1.809.768-.752,0-1.373-.258-1.861-.773-.492-.516-.738-1.164-.738-1.945,0-1.016.367-1.727,1.103-2.133ZM381.777,24.121c0,.418.13.777.39,1.078.264.297.584.445.96.445.373,0,.69-.146.954-.439.264-.297.396-.652.396-1.066,0-.418-.132-.773-.396-1.066s-.581-.439-.954-.439c-.369,0-.688.146-.954.439-.264.293-.396.643-.396,1.049ZM381.93,20.113c0,.387.118.711.354.973.239.266.527.398.865.398.334,0,.62-.133.859-.398s.358-.584.358-.955-.119-.689-.358-.955-.525-.398-.859-.398-.621.133-.86.398c-.238.266-.358.578-.358.938Z" fill="#000" stroke-width="0"/>
      </g>
    </g>
  </g>
<style>
#g-velo-Mesa_de_trabajo_3-interactions-img rect, #g-velo-Mesa_de_trabajo_3-interactions-img circle, #g-velo-Mesa_de_trabajo_3-interactions-img path, #g-velo-Mesa_de_trabajo_3-interactions-img line, #g-velo-Mesa_de_trabajo_3-interactions-img polyline, #g-velo-Mesa_de_trabajo_3-interactions-img polygon { vector-effect: non-scaling-stroke; }
</style>
</svg>
