<?xml version="1.0" encoding="UTF-8"?>
<svg id="g-velo-Mesa_de_trabajo_1-interactions-img" data-name="Capa 1" xmlns="http://www.w3.org/2000/svg" xmlns:xlink="http://www.w3.org/1999/xlink" baseProfile="tiny" version="1.2" viewBox="0 0 1289 415">
  <g id="Communes">
    <g id="communes-2023">
      <rect x="861.666" y="167.649" width="206.516" height="206.516" fill="none" stroke-width="0"/>
      <path d="M964.924,167.649c57.028.001,103.257,46.232,103.256,103.26-.001,57.028-46.232,103.257-103.26,103.256-5.689,0-11.369-.47-16.981-1.406l16.985-101.852v-103.258Z" fill="#ff7c63" stroke="#fff" stroke-linejoin="bevel" stroke-width=".5"/>
      <path d="M947.938,372.759c-56.251-9.38-94.248-62.584-84.869-118.835,8.302-49.787,51.38-86.276,101.854-86.275v103.258l-16.985,101.852Z" fill="#c71e1d" stroke="#fff" stroke-linejoin="bevel" stroke-width=".5"/>
      <image width="1228" height="1775" transform="translate(813.96 -13.04) scale(.24)" xlink:href="velo-Mesa_de_trabajo_1-interactions-1.png"/>
      <g isolation="isolate">
        <path d="M1008.42,281.331l1.721-.146c.127.838.424,1.467.887,1.889.465.422,1.025.633,1.68.633.789,0,1.457-.297,2.003-.892.546-.595.819-1.384.819-2.367,0-.934-.262-1.672-.788-2.212-.525-.54-1.212-.81-2.062-.81-.528,0-1.005.12-1.429.36-.425.24-.759.551-1.001.933l-1.539-.2,1.293-6.856h6.637v1.566h-5.326l-.719,3.587c.801-.558,1.642-.838,2.522-.838,1.165,0,2.149.404,2.95,1.211.801.807,1.202,1.845,1.202,3.114,0,1.208-.352,2.252-1.056,3.132-.856,1.081-2.024,1.621-3.505,1.621-1.214,0-2.205-.34-2.973-1.02-.767-.68-1.206-1.581-1.315-2.704Z" fill="#fff" stroke-width="0"/>
        <path d="M1018.799,281.303l1.639-.219c.188.929.508,1.598.96,2.007.453.41,1.003.615,1.653.615.771,0,1.422-.267,1.952-.801.531-.534.797-1.196.797-1.985,0-.752-.246-1.373-.737-1.862-.492-.488-1.117-.733-1.875-.733-.31,0-.695.061-1.156.182l.182-1.438c.109.012.197.018.264.018.698,0,1.326-.182,1.885-.546s.838-.925.838-1.684c0-.601-.204-1.098-.61-1.493-.406-.394-.932-.592-1.575-.592-.637,0-1.169.2-1.593.601s-.698,1.001-.819,1.803l-1.639-.291c.2-1.098.656-1.95,1.366-2.554.71-.604,1.593-.906,2.649-.906.728,0,1.399.156,2.012.469.613.313,1.082.739,1.407,1.279.324.54.487,1.114.487,1.721,0,.577-.155,1.102-.464,1.575s-.768.85-1.375,1.129c.789.182,1.402.56,1.839,1.133s.656,1.292.656,2.153c0,1.165-.425,2.153-1.275,2.963s-1.924,1.215-3.223,1.215c-1.171,0-2.144-.349-2.918-1.047-.773-.698-1.215-1.602-1.324-2.713Z" fill="#fff" stroke-width="0"/>
        <path d="M1029.469,274.685c0-.953.24-1.763.719-2.431.479-.668,1.174-1.001,2.085-1.001.838,0,1.531.299,2.08.897.55.598.824,1.477.824,2.636,0,1.129-.278,1.998-.833,2.608-.556.61-1.24.915-2.053.915-.807,0-1.479-.3-2.017-.901-.536-.601-.805-1.508-.805-2.722ZM1032.319,272.381c-.406,0-.745.176-1.015.528-.271.352-.406.999-.406,1.939,0,.856.137,1.458.41,1.807.273.349.61.523,1.011.523.413,0,.754-.176,1.025-.528.27-.352.405-.995.405-1.93,0-.862-.137-1.467-.41-1.816-.273-.349-.613-.523-1.02-.523ZM1032.328,285.318l7.302-14.066h1.329l-7.274,14.066h-1.357ZM1038.1,281.695c0-.959.24-1.771.719-2.435s1.178-.997,2.094-.997c.838,0,1.531.299,2.081.897.549.598.824,1.477.824,2.636,0,1.129-.277,1.998-.833,2.608-.555.61-1.242.915-2.062.915-.807,0-1.479-.302-2.017-.906-.536-.604-.805-1.51-.805-2.718ZM1040.959,279.391c-.413,0-.754.176-1.024.528-.271.352-.406.999-.406,1.939,0,.85.137,1.451.41,1.803.273.352.61.528,1.011.528.419,0,.763-.176,1.033-.528.271-.352.406-.995.406-1.93,0-.862-.137-1.467-.41-1.816-.273-.349-.613-.523-1.02-.523Z" fill="#fff" stroke-width="0"/>
      </g>
      <g isolation="isolate">
        <path d="M886.605,272.609v-3.196h-5.79v-1.502l6.091-8.649h1.338v8.649h1.803v1.502h-1.803v3.196h-1.639ZM886.605,267.911v-6.018l-4.179,6.018h4.179Z" fill="#fff" stroke-width="0"/>
        <path d="M891.831,261.01v-1.575h8.64v1.275c-.85.905-1.692,2.106-2.526,3.605-.835,1.499-1.48,3.041-1.935,4.625-.328,1.117-.537,2.34-.628,3.669h-1.684c.018-1.05.224-2.318.619-3.806.395-1.487.96-2.921,1.698-4.302.737-1.381,1.521-2.545,2.353-3.491h-6.537Z" fill="#fff" stroke-width="0"/>
        <path d="M902.401,262.467c0-.953.24-1.763.719-2.431.479-.668,1.174-1.001,2.085-1.001.838,0,1.531.299,2.08.897.55.598.824,1.477.824,2.636,0,1.129-.278,1.998-.833,2.608-.556.61-1.24.915-2.053.915-.807,0-1.479-.3-2.017-.901-.536-.601-.805-1.508-.805-2.722ZM905.251,260.163c-.406,0-.745.176-1.015.528-.271.352-.406.999-.406,1.939,0,.856.137,1.458.41,1.807.273.349.61.523,1.011.523.413,0,.754-.176,1.025-.528.27-.352.405-.995.405-1.93,0-.862-.137-1.467-.41-1.816-.273-.349-.613-.523-1.02-.523ZM905.26,273.1l7.302-14.066h1.329l-7.274,14.066h-1.357ZM911.032,269.477c0-.959.24-1.771.719-2.435s1.178-.997,2.094-.997c.838,0,1.531.299,2.081.897.549.598.824,1.477.824,2.636,0,1.129-.277,1.998-.833,2.608-.555.61-1.242.915-2.062.915-.807,0-1.479-.302-2.017-.906-.536-.604-.805-1.51-.805-2.718ZM913.891,267.174c-.413,0-.754.176-1.024.528-.271.352-.406.999-.406,1.939,0,.85.137,1.451.41,1.803.273.352.61.528,1.011.528.419,0,.763-.176,1.033-.528.271-.352.406-.995.406-1.93,0-.862-.137-1.467-.41-1.816-.273-.349-.613-.523-1.02-.523Z" fill="#fff" stroke-width="0"/>
      </g>
      <g>
        <path d="M954.482,412.4h3.032v1.283h-5.468l2.826-3.803c.277-.379.51-.707.699-.984.188-.277.33-.51.43-.697.199-.367.3-.697.3-.99,0-.422-.134-.775-.4-1.061-.268-.285-.599-.428-.991-.428-.823,0-1.295.541-1.414,1.623h-1.223c.196-1.906,1.062-2.859,2.6-2.859.742,0,1.363.262,1.867.785.506.523.759,1.172.759,1.945,0,.492-.118.975-.354,1.447-.119.246-.294.538-.524.876s-.521.737-.873,1.198l-1.266,1.664Z" fill="#000" stroke-width="0"/>
        <path d="M958.902,409.102c0-1.441.302-2.592.906-3.451.541-.777,1.197-1.166,1.967-1.166s1.426.389,1.967,1.166c.605.859.908,2.029.908,3.51s-.303,2.645-.908,3.504c-.541.777-1.195,1.166-1.961,1.166s-1.424-.389-1.973-1.166c-.604-.859-.906-2.047-.906-3.562ZM960.109,409.107c0,1.004.156,1.838.469,2.502.313.652.713.979,1.197.979s.881-.326,1.197-.979c.316-.648.475-1.467.475-2.455s-.158-1.809-.475-2.461c-.316-.648-.715-.973-1.197-.973-.479,0-.875.324-1.191.973-.316.645-.475,1.449-.475,2.414Z" fill="#000" stroke-width="0"/>
        <path d="M967.813,412.4h3.032v1.283h-5.469l2.827-3.803c.277-.379.511-.707.698-.984.188-.277.332-.51.43-.697.201-.367.301-.697.301-.99,0-.422-.133-.775-.4-1.061s-.598-.428-.992-.428c-.822,0-1.293.541-1.412,1.623h-1.225c.197-1.906,1.064-2.859,2.601-2.859.741,0,1.364.262,1.866.785.507.523.76,1.172.76,1.945,0,.492-.117.975-.354,1.447-.119.246-.295.538-.524.876-.23.338-.521.737-.873,1.198l-1.266,1.664Z" fill="#000" stroke-width="0"/>
        <path d="M974.568,409.482v-1.166c.521,0,.871-.064,1.05-.193.319-.227.479-.59.479-1.09,0-.387-.115-.701-.348-.943-.229-.246-.525-.369-.891-.369-.342,0-.605.092-.791.275-.18.188-.313.504-.401.949h-1.224c.127-.852.387-1.476.781-1.872.393-.396.943-.595,1.65-.595.713,0,1.295.234,1.745.703.45.465.675,1.064.675,1.799,0,.828-.295,1.473-.886,1.934.675.441,1.013,1.158,1.013,2.15,0,.812-.246,1.477-.738,1.992s-1.123.773-1.893.773c-.981,0-1.709-.4-2.184-1.201-.197-.336-.322-.801-.375-1.395h1.188c.062.438.217.772.461,1.005s.562.349.957.349.726-.146.986-.439c.26-.301.391-.682.391-1.143,0-.609-.195-1.043-.586-1.301-.229-.148-.582-.223-1.061-.223Z" fill="#000" stroke-width="0"/>
      </g>
    </g>
    <g id="communes-2013">
      <rect id="square-orange" x="471.465" y="21.08" width="15.799" height="15.799" fill="#ff7c63" stroke-width="0"/>
      <g isolation="isolate">
        <path d="M499.724,33.477v1.144h-6.407c-.009-.287.037-.562.139-.827.163-.436.424-.866.783-1.289s.878-.913,1.557-1.468c1.053-.864,1.765-1.548,2.136-2.053.37-.505.555-.982.555-1.431,0-.472-.169-.87-.506-1.194-.337-.324-.777-.486-1.319-.486-.573,0-1.032.172-1.375.516-.344.344-.518.82-.522,1.428l-1.223-.125c.084-.913.399-1.608.946-2.086.546-.478,1.28-.717,2.202-.717.93,0,1.666.258,2.209.773.542.516.813,1.155.813,1.918,0,.388-.08.769-.238,1.144-.159.375-.422.769-.79,1.183-.368.414-.98.983-1.835,1.706-.714.6-1.172,1.006-1.375,1.22-.203.214-.371.429-.503.645h4.754Z" fill="#181818" stroke-width="0"/>
        <path d="M501.331,34.621v-7.022h1.071v.998c.516-.771,1.261-1.157,2.235-1.157.423,0,.812.076,1.167.228.355.152.621.352.797.599s.3.54.37.879c.044.22.066.606.066,1.157v4.318h-1.19v-4.272c0-.485-.046-.847-.139-1.088-.093-.24-.257-.432-.493-.575-.236-.143-.513-.215-.83-.215-.507,0-.944.161-1.313.483-.368.322-.552.932-.552,1.831v3.835h-1.19Z" fill="#181818" stroke-width="0"/>
        <path d="M513.418,34.621v-.886c-.445.697-1.1,1.045-1.964,1.045-.56,0-1.075-.154-1.544-.463-.47-.309-.833-.739-1.091-1.293-.258-.553-.387-1.189-.387-1.907,0-.701.117-1.337.35-1.908.234-.571.584-1.008,1.051-1.312.467-.304.99-.456,1.567-.456.423,0,.8.089,1.131.268.331.179.6.411.807.698v-3.478h1.184v9.694h-1.104ZM509.656,31.117c0,.899.19,1.571.569,2.016.379.445.827.668,1.342.668.52,0,.962-.213,1.326-.638.363-.425.545-1.074.545-1.947,0-.961-.185-1.666-.555-2.116-.37-.45-.827-.674-1.369-.674-.529,0-.971.216-1.326.648s-.532,1.113-.532,2.043Z" fill="#181818" stroke-width="0"/>
        <path d="M519.68,32.525l1.177-.185c.066.472.25.833.552,1.084.302.251.724.377,1.266.377.547,0,.952-.111,1.217-.334.265-.222.397-.484.397-.783,0-.269-.117-.481-.351-.635-.163-.106-.568-.24-1.217-.403-.873-.22-1.478-.411-1.815-.572-.337-.161-.593-.383-.767-.668-.174-.284-.261-.598-.261-.942,0-.313.072-.603.215-.87.143-.266.338-.488.585-.664.185-.136.437-.252.757-.347.32-.095.662-.142,1.028-.142.551,0,1.035.079,1.452.238s.724.374.922.645c.198.271.335.634.41,1.087l-1.164.159c-.053-.361-.206-.643-.46-.846-.253-.203-.612-.304-1.074-.304-.547,0-.937.091-1.17.271-.234.181-.35.393-.35.635,0,.154.048.293.145.417.097.128.249.233.456.317.119.044.469.145,1.051.304.842.225,1.429.409,1.762.552.333.143.594.352.783.625s.285.613.285,1.018c0,.397-.116.77-.347,1.121-.231.35-.565.622-1.002.813s-.93.288-1.481.288c-.913,0-1.608-.19-2.086-.569s-.783-.941-.916-1.686Z" fill="#181818" stroke-width="0"/>
        <path d="M531.734,32.36l1.23.152c-.194.719-.553,1.276-1.078,1.673-.525.397-1.194.595-2.01.595-1.027,0-1.842-.316-2.443-.949s-.902-1.52-.902-2.661c0-1.181.304-2.098.912-2.751.609-.652,1.397-.978,2.367-.978.939,0,1.706.32,2.301.959.595.639.893,1.539.893,2.698,0,.071-.002.176-.007.317h-5.237c.044.771.262,1.362.655,1.772.392.41.881.615,1.468.615.436,0,.809-.115,1.118-.344.309-.229.553-.595.734-1.097ZM527.826,30.436h3.921c-.053-.591-.203-1.034-.449-1.329-.379-.458-.871-.688-1.474-.688-.547,0-1.006.183-1.379.549-.372.366-.578.855-.618,1.468Z" fill="#181818" stroke-width="0"/>
        <path d="M534.458,34.621v-7.022h1.064v.985c.22-.344.514-.62.879-.83.366-.209.783-.314,1.25-.314.52,0,.947.108,1.279.324s.567.518.704.906c.555-.82,1.278-1.23,2.169-1.23.697,0,1.232.193,1.607.578.375.386.562.98.562,1.782v4.82h-1.184v-4.423c0-.476-.039-.819-.116-1.028-.077-.209-.217-.378-.42-.506-.203-.128-.441-.192-.714-.192-.494,0-.904.164-1.23.493-.326.328-.489.854-.489,1.577v4.08h-1.19v-4.562c0-.529-.097-.926-.291-1.19-.194-.265-.511-.397-.952-.397-.335,0-.645.088-.929.264-.284.177-.49.434-.618.774s-.192.829-.192,1.468v3.643h-1.19Z" fill="#181818" stroke-width="0"/>
        <path d="M550.546,32.36l1.23.152c-.194.719-.553,1.276-1.078,1.673-.525.397-1.194.595-2.01.595-1.027,0-1.842-.316-2.443-.949s-.902-1.52-.902-2.661c0-1.181.304-2.098.912-2.751.609-.652,1.397-.978,2.367-.978.939,0,1.706.32,2.301.959.595.639.893,1.539.893,2.698,0,.071-.002.176-.007.317h-5.237c.044.771.262,1.362.655,1.772.392.41.881.615,1.468.615.436,0,.809-.115,1.118-.344.309-.229.553-.595.734-1.097ZM546.638,30.436h3.921c-.053-.591-.203-1.034-.449-1.329-.379-.458-.871-.688-1.474-.688-.547,0-1.006.183-1.379.549-.372.366-.578.855-.618,1.468Z" fill="#181818" stroke-width="0"/>
        <path d="M552.794,32.525l1.177-.185c.066.472.25.833.552,1.084.302.251.724.377,1.266.377.547,0,.952-.111,1.217-.334.265-.222.397-.484.397-.783,0-.269-.117-.481-.351-.635-.163-.106-.568-.24-1.217-.403-.873-.22-1.478-.411-1.815-.572-.337-.161-.593-.383-.767-.668-.174-.284-.261-.598-.261-.942,0-.313.072-.603.215-.87.143-.266.338-.488.585-.664.185-.136.437-.252.757-.347.32-.095.662-.142,1.028-.142.551,0,1.035.079,1.452.238s.724.374.922.645c.198.271.335.634.41,1.087l-1.164.159c-.053-.361-.206-.643-.46-.846-.253-.203-.612-.304-1.074-.304-.547,0-.937.091-1.17.271-.234.181-.35.393-.35.635,0,.154.048.293.145.417.097.128.249.233.456.317.119.044.469.145,1.051.304.842.225,1.429.409,1.762.552.333.143.594.352.783.625s.285.613.285,1.018c0,.397-.116.77-.347,1.121-.231.35-.565.622-1.002.813s-.93.288-1.481.288c-.913,0-1.608-.19-2.086-.569s-.783-.941-.916-1.686Z" fill="#181818" stroke-width="0"/>
        <path d="M562.639,33.557l.172,1.051c-.335.071-.635.106-.899.106-.432,0-.767-.068-1.005-.205-.238-.136-.406-.316-.502-.539-.097-.222-.146-.691-.146-1.405v-4.04h-.873v-.926h.873v-1.739l1.184-.714v2.453h1.197v.926h-1.197v4.106c0,.34.021.558.063.655s.11.174.205.231c.095.057.23.086.407.086.132,0,.306-.015.522-.046Z" fill="#181818" stroke-width="0"/>
        <path d="M568.61,32.36l1.23.152c-.194.719-.553,1.276-1.078,1.673-.525.397-1.194.595-2.01.595-1.027,0-1.842-.316-2.443-.949s-.902-1.52-.902-2.661c0-1.181.304-2.098.912-2.751.609-.652,1.397-.978,2.367-.978.939,0,1.706.32,2.301.959.595.639.893,1.539.893,2.698,0,.071-.002.176-.007.317h-5.237c.044.771.262,1.362.655,1.772.392.41.881.615,1.468.615.436,0,.809-.115,1.118-.344.309-.229.553-.595.734-1.097ZM564.702,30.436h3.921c-.053-.591-.203-1.034-.449-1.329-.379-.458-.871-.688-1.474-.688-.547,0-1.006.183-1.379.549-.372.366-.578.855-.618,1.468Z" fill="#181818" stroke-width="0"/>
        <path d="M571.321,34.621v-7.022h1.071v1.064c.273-.498.526-.827.757-.985s.486-.238.764-.238c.401,0,.809.128,1.223.383l-.41,1.104c-.291-.172-.582-.258-.873-.258-.26,0-.494.079-.701.235-.207.156-.355.374-.443.651-.132.423-.198.886-.198,1.388v3.676h-1.19Z" fill="#181818" stroke-width="0"/>
      </g>
      <rect id="square-red" x="471.465" y="1.924" width="15.799" height="15.799" fill="#c71e1d" stroke-width="0"/>
      <g isolation="isolate">
        <path d="M497.952,15.465h-1.19v-7.584c-.287.274-.662.547-1.128.82s-.883.478-1.253.615v-1.151c.666-.313,1.248-.692,1.746-1.137s.851-.877,1.058-1.296h.767v9.733Z" fill="#181818" stroke-width="0"/>
        <path d="M500.855,13.369l1.177-.185c.066.472.25.833.552,1.084.302.251.724.377,1.266.377.547,0,.952-.111,1.217-.334.265-.222.397-.484.397-.783,0-.269-.117-.481-.351-.635-.163-.106-.568-.24-1.217-.403-.873-.22-1.478-.411-1.815-.572-.337-.161-.593-.383-.767-.668-.174-.284-.261-.598-.261-.942,0-.313.072-.603.215-.87.143-.266.338-.488.585-.664.185-.136.437-.252.757-.347.32-.095.662-.142,1.028-.142.551,0,1.035.079,1.452.238s.724.374.922.645c.198.271.335.634.41,1.087l-1.164.159c-.053-.361-.206-.643-.46-.846-.253-.203-.612-.304-1.074-.304-.547,0-.937.091-1.17.271-.234.181-.35.393-.35.635,0,.154.048.293.145.417.097.128.249.233.456.317.119.044.469.145,1.051.304.842.225,1.429.409,1.762.552.333.143.594.352.783.625s.285.613.285,1.018c0,.397-.116.77-.347,1.121-.231.35-.565.622-1.002.813s-.93.288-1.481.288c-.913,0-1.608-.19-2.086-.569s-.783-.941-.916-1.686Z" fill="#181818" stroke-width="0"/>
        <path d="M510.7,14.401l.172,1.051c-.335.071-.635.106-.899.106-.432,0-.767-.068-1.005-.205-.238-.136-.406-.316-.502-.539-.097-.222-.146-.691-.146-1.405v-4.04h-.873v-.926h.873v-1.739l1.184-.714v2.453h1.197v.926h-1.197v4.106c0,.34.021.558.063.655s.11.174.205.231c.095.057.23.086.407.086.132,0,.306-.015.522-.046Z" fill="#181818" stroke-width="0"/>
        <path d="M515.15,13.369l1.177-.185c.066.472.25.833.552,1.084.302.251.724.377,1.266.377.547,0,.952-.111,1.217-.334.265-.222.397-.484.397-.783,0-.269-.117-.481-.351-.635-.163-.106-.568-.24-1.217-.403-.873-.22-1.478-.411-1.815-.572-.337-.161-.593-.383-.767-.668-.174-.284-.261-.598-.261-.942,0-.313.072-.603.215-.87.143-.266.338-.488.585-.664.185-.136.437-.252.757-.347.32-.095.662-.142,1.028-.142.551,0,1.035.079,1.452.238s.724.374.922.645c.198.271.335.634.41,1.087l-1.164.159c-.053-.361-.206-.643-.46-.846-.253-.203-.612-.304-1.074-.304-.547,0-.937.091-1.17.271-.234.181-.35.393-.35.635,0,.154.048.293.145.417.097.128.249.233.456.317.119.044.469.145,1.051.304.842.225,1.429.409,1.762.552.333.143.594.352.783.625s.285.613.285,1.018c0,.397-.116.77-.347,1.121-.231.35-.565.622-1.002.813s-.93.288-1.481.288c-.913,0-1.608-.19-2.086-.569s-.783-.941-.916-1.686Z" fill="#181818" stroke-width="0"/>
        <path d="M527.205,13.204l1.23.152c-.194.719-.553,1.276-1.078,1.673-.525.397-1.194.595-2.01.595-1.027,0-1.842-.316-2.443-.949s-.902-1.52-.902-2.661c0-1.181.304-2.098.912-2.751.609-.652,1.397-.978,2.367-.978.939,0,1.706.32,2.301.959.595.639.893,1.539.893,2.698,0,.071-.002.176-.007.317h-5.237c.044.771.262,1.362.655,1.772.392.41.881.615,1.468.615.436,0,.809-.115,1.118-.344.309-.229.553-.595.734-1.097ZM523.297,11.28h3.921c-.053-.591-.203-1.034-.449-1.329-.379-.458-.871-.688-1.474-.688-.547,0-1.006.183-1.379.549-.372.366-.578.855-.618,1.468Z" fill="#181818" stroke-width="0"/>
        <path d="M529.929,15.465v-7.022h1.064v.985c.22-.344.514-.62.879-.83.366-.209.783-.314,1.25-.314.52,0,.947.108,1.279.324s.567.518.704.906c.555-.82,1.278-1.23,2.169-1.23.697,0,1.232.193,1.607.578.375.386.562.98.562,1.782v4.82h-1.184v-4.423c0-.476-.039-.819-.116-1.028-.077-.209-.217-.378-.42-.506-.203-.128-.441-.192-.714-.192-.494,0-.904.164-1.23.493-.326.328-.489.854-.489,1.577v4.08h-1.19v-4.562c0-.529-.097-.926-.291-1.19-.194-.265-.511-.397-.952-.397-.335,0-.645.088-.929.264-.284.177-.49.434-.618.774s-.192.829-.192,1.468v3.643h-1.19Z" fill="#181818" stroke-width="0"/>
        <path d="M546.016,13.204l1.23.152c-.194.719-.553,1.276-1.078,1.673-.525.397-1.194.595-2.01.595-1.027,0-1.842-.316-2.443-.949s-.902-1.52-.902-2.661c0-1.181.304-2.098.912-2.751.609-.652,1.397-.978,2.367-.978.939,0,1.706.32,2.301.959.595.639.893,1.539.893,2.698,0,.071-.002.176-.007.317h-5.237c.044.771.262,1.362.655,1.772.392.41.881.615,1.468.615.436,0,.809-.115,1.118-.344.309-.229.553-.595.734-1.097ZM542.108,11.28h3.921c-.053-.591-.203-1.034-.449-1.329-.379-.458-.871-.688-1.474-.688-.547,0-1.006.183-1.379.549-.372.366-.578.855-.618,1.468Z" fill="#181818" stroke-width="0"/>
        <path d="M548.264,13.369l1.177-.185c.066.472.25.833.552,1.084.302.251.724.377,1.266.377.547,0,.952-.111,1.217-.334.265-.222.397-.484.397-.783,0-.269-.117-.481-.351-.635-.163-.106-.568-.24-1.217-.403-.873-.22-1.478-.411-1.815-.572-.337-.161-.593-.383-.767-.668-.174-.284-.261-.598-.261-.942,0-.313.072-.603.215-.87.143-.266.338-.488.585-.664.185-.136.437-.252.757-.347.32-.095.662-.142,1.028-.142.551,0,1.035.079,1.452.238s.724.374.922.645c.198.271.335.634.41,1.087l-1.164.159c-.053-.361-.206-.643-.46-.846-.253-.203-.612-.304-1.074-.304-.547,0-.937.091-1.17.271-.234.181-.35.393-.35.635,0,.154.048.293.145.417.097.128.249.233.456.317.119.044.469.145,1.051.304.842.225,1.429.409,1.762.552.333.143.594.352.783.625s.285.613.285,1.018c0,.397-.116.77-.347,1.121-.231.35-.565.622-1.002.813s-.93.288-1.481.288c-.913,0-1.608-.19-2.086-.569s-.783-.941-.916-1.686Z" fill="#181818" stroke-width="0"/>
        <path d="M558.11,14.401l.172,1.051c-.335.071-.635.106-.899.106-.432,0-.767-.068-1.005-.205-.238-.136-.406-.316-.502-.539-.097-.222-.146-.691-.146-1.405v-4.04h-.873v-.926h.873v-1.739l1.184-.714v2.453h1.197v.926h-1.197v4.106c0,.34.021.558.063.655s.11.174.205.231c.095.057.23.086.407.086.132,0,.306-.015.522-.046Z" fill="#181818" stroke-width="0"/>
        <path d="M564.081,13.204l1.23.152c-.194.719-.553,1.276-1.078,1.673-.525.397-1.194.595-2.01.595-1.027,0-1.842-.316-2.443-.949s-.902-1.52-.902-2.661c0-1.181.304-2.098.912-2.751.609-.652,1.397-.978,2.367-.978.939,0,1.706.32,2.301.959.595.639.893,1.539.893,2.698,0,.071-.002.176-.007.317h-5.237c.044.771.262,1.362.655,1.772.392.41.881.615,1.468.615.436,0,.809-.115,1.118-.344.309-.229.553-.595.734-1.097ZM560.173,11.28h3.921c-.053-.591-.203-1.034-.449-1.329-.379-.458-.871-.688-1.474-.688-.547,0-1.006.183-1.379.549-.372.366-.578.855-.618,1.468Z" fill="#181818" stroke-width="0"/>
        <path d="M566.792,15.465v-7.022h1.071v1.064c.273-.498.526-.827.757-.985s.486-.238.764-.238c.401,0,.809.128,1.223.383l-.41,1.104c-.291-.172-.582-.258-.873-.258-.26,0-.494.079-.701.235-.207.156-.355.374-.443.651-.132.423-.198.886-.198,1.388v3.676h-1.19Z" fill="#181818" stroke-width="0"/>
      </g>
      <rect x="228.321" y="167.649" width="206.173" height="206.173" fill="none" stroke-width="0"/>
      <path d="M331.407,167.649c58.548,0,105.696,48.808,102.975,107.955-2.429,52.811-45.294,95.677-98.106,98.106-59.147,2.721-107.956-44.426-107.956-102.974,0-20.025,5.832-39.616,16.784-56.38l86.302,56.38v-103.087Z" fill="#ff7c63" stroke="#fff" stroke-linejoin="bevel" stroke-width=".5"/>
      <path d="M245.105,214.356c19.037-29.141,51.494-46.707,86.302-46.707v103.087l-86.302-56.38Z" fill="#c71e1d" stroke="#fff" stroke-linejoin="bevel" stroke-width=".5"/>
      <image width="1228" height="1775" transform="translate(179.88 -14) scale(.24)" xlink:href="velo-Mesa_de_trabajo_1-interactions-2.png"/>
      <g isolation="isolate">
        <path d="M287.286,223.406h-1.639v-10.443c-.395.377-.912.753-1.552,1.129-.641.377-1.215.659-1.725.847v-1.584c.916-.431,1.717-.953,2.404-1.566.686-.613,1.171-1.208,1.457-1.784h1.056v13.401Z" fill="#fff" stroke-width="0"/>
        <path d="M299.986,213.327l-1.63.127c-.146-.643-.352-1.111-.619-1.402-.443-.467-.989-.701-1.639-.701-.522,0-.98.146-1.375.437-.516.377-.923.926-1.22,1.648-.298.723-.452,1.751-.464,3.086.394-.601.877-1.047,1.448-1.338.57-.291,1.168-.437,1.794-.437,1.093,0,2.022.402,2.79,1.206.768.804,1.152,1.844,1.152,3.118,0,.838-.181,1.616-.542,2.335-.361.719-.857,1.27-1.489,1.652-.632.382-1.347.574-2.149.574-1.366,0-2.48-.502-3.341-1.507-.862-1.004-1.293-2.66-1.293-4.966,0-2.579.476-4.455,1.429-5.626.831-1.02,1.951-1.53,3.359-1.53,1.05,0,1.91.295,2.581.883.67.589,1.073,1.402,1.206,2.44ZM293.295,219.081c0,.564.12,1.105.36,1.621.24.516.575.909,1.006,1.179.431.27.883.405,1.357.405.692,0,1.287-.279,1.784-.838.497-.558.747-1.317.747-2.276,0-.922-.246-1.649-.737-2.18-.492-.531-1.111-.797-1.857-.797-.741,0-1.369.266-1.885.797-.516.531-.774,1.228-.774,2.089Z" fill="#fff" stroke-width="0"/>
        <path d="M302.162,213.263c0-.953.24-1.763.719-2.431.479-.668,1.174-1.001,2.085-1.001.838,0,1.531.299,2.08.897.549.598.824,1.477.824,2.636,0,1.129-.278,1.998-.833,2.608s-1.24.915-2.053.915c-.807,0-1.479-.3-2.017-.901s-.806-1.508-.806-2.722ZM305.012,210.96c-.407,0-.745.176-1.015.528-.27.352-.405.999-.405,1.939,0,.856.137,1.458.41,1.807.273.349.61.523,1.011.523.413,0,.754-.176,1.024-.528.27-.352.405-.995.405-1.93,0-.862-.137-1.467-.41-1.816-.273-.349-.613-.523-1.02-.523ZM305.021,223.897l7.302-14.066h1.329l-7.274,14.066h-1.357ZM310.793,220.274c0-.959.24-1.771.719-2.435.479-.665,1.177-.997,2.094-.997.838,0,1.531.299,2.08.897.549.598.824,1.477.824,2.636,0,1.129-.278,1.998-.833,2.608s-1.243.915-2.062.915c-.807,0-1.479-.302-2.017-.906s-.806-1.51-.806-2.718ZM313.652,217.97c-.413,0-.754.176-1.024.528-.27.352-.405.999-.405,1.939,0,.85.137,1.451.41,1.803.273.352.61.528,1.011.528.419,0,.763-.176,1.033-.528.27-.352.405-.995.405-1.93,0-.862-.137-1.467-.41-1.816-.273-.349-.613-.523-1.02-.523Z" fill="#fff" stroke-width="0"/>
      </g>
      <g isolation="isolate">
        <path d="M361.171,316.251c-.68-.249-1.184-.604-1.511-1.065-.328-.461-.492-1.013-.492-1.657,0-.971.349-1.787,1.047-2.449.698-.661,1.626-.992,2.786-.992,1.165,0,2.103.339,2.813,1.015.71.677,1.065,1.501,1.065,2.472,0,.619-.163,1.158-.487,1.616-.325.459-.818.812-1.479,1.061.819.267,1.443.698,1.871,1.293.428.595.642,1.305.642,2.13,0,1.141-.404,2.1-1.211,2.877-.807.777-1.87,1.165-3.186,1.165s-2.38-.39-3.186-1.17c-.807-.78-1.211-1.753-1.211-2.918,0-.868.22-1.594.66-2.18.44-.586,1.066-.985,1.88-1.197ZM360.315,319.638c0,.468.11.92.332,1.357.221.437.551.776.988,1.015.437.24.907.36,1.411.36.783,0,1.429-.252,1.939-.756.51-.504.765-1.144.765-1.921,0-.789-.263-1.441-.788-1.957-.525-.516-1.182-.774-1.971-.774-.771,0-1.41.255-1.916.765-.507.51-.76,1.147-.76,1.912ZM360.843,313.474c0,.632.203,1.147.61,1.548.406.401.934.601,1.584.601.631,0,1.148-.199,1.552-.596.403-.397.605-.884.605-1.461,0-.601-.208-1.106-.624-1.516-.416-.41-.933-.615-1.552-.615-.625,0-1.144.2-1.557.601-.413.401-.619.88-.619,1.438Z" fill="#fff" stroke-width="0"/>
        <path d="M374.272,323.489v-3.196h-5.79v-1.502l6.091-8.649h1.338v8.649h1.803v1.502h-1.803v3.196h-1.639ZM374.272,318.791v-6.018l-4.179,6.018h4.179Z" fill="#fff" stroke-width="0"/>
        <path d="M379.698,313.347c0-.953.24-1.763.719-2.431.479-.668,1.174-1.001,2.085-1.001.838,0,1.531.299,2.08.897.549.598.824,1.477.824,2.636,0,1.129-.278,1.998-.833,2.608s-1.24.915-2.053.915c-.807,0-1.479-.3-2.017-.901s-.806-1.508-.806-2.722ZM382.548,311.043c-.407,0-.745.176-1.015.528-.27.352-.405.999-.405,1.939,0,.856.137,1.458.41,1.807.273.349.61.523,1.011.523.413,0,.754-.176,1.024-.528.27-.352.405-.995.405-1.93,0-.862-.137-1.467-.41-1.816-.273-.349-.613-.523-1.02-.523ZM382.557,323.98l7.302-14.066h1.329l-7.274,14.066h-1.357ZM388.329,320.357c0-.959.24-1.771.719-2.435.479-.665,1.177-.997,2.094-.997.838,0,1.531.299,2.08.897.549.598.824,1.477.824,2.636,0,1.129-.278,1.998-.833,2.608s-1.243.915-2.062.915c-.807,0-1.479-.302-2.017-.906s-.806-1.51-.806-2.718ZM391.188,318.054c-.413,0-.754.176-1.024.528-.27.352-.405.999-.405,1.939,0,.85.137,1.451.41,1.803.273.352.61.528,1.011.528.419,0,.763-.176,1.033-.528.27-.352.405-.995.405-1.93,0-.862-.137-1.467-.41-1.816-.273-.349-.613-.523-1.02-.523Z" fill="#fff" stroke-width="0"/>
      </g>
      <g>
        <path d="M317.6,412.288h3.032v1.283h-5.468l2.827-3.803c.277-.379.51-.707.699-.984.188-.277.331-.51.43-.697.2-.367.3-.697.3-.99,0-.422-.133-.775-.4-1.061-.268-.285-.598-.428-.992-.428-.823,0-1.294.541-1.413,1.623h-1.224c.197-1.906,1.063-2.859,2.6-2.859.742,0,1.364.262,1.867.785.506.523.759,1.172.759,1.945,0,.492-.118.975-.354,1.447-.119.246-.294.538-.524.876-.23.338-.521.737-.873,1.198l-1.266,1.664Z" fill="#000" stroke-width="0"/>
        <path d="M322.019,408.989c0-1.441.302-2.592.907-3.451.542-.777,1.197-1.166,1.967-1.166s1.425.389,1.967,1.166c.604.859.907,2.029.907,3.51s-.303,2.645-.907,3.504c-.542.777-1.195,1.166-1.962,1.166s-1.424-.389-1.972-1.166c-.604-.859-.907-2.047-.907-3.562ZM323.227,408.995c0,1.004.156,1.838.469,2.502.313.652.712.979,1.197.979.481,0,.88-.326,1.197-.979.316-.648.475-1.467.475-2.455s-.158-1.809-.475-2.461c-.316-.648-.715-.973-1.197-.973-.479,0-.875.324-1.192.973-.316.645-.475,1.449-.475,2.414Z" fill="#000" stroke-width="0"/>
        <path d="M330.319,405.802h-1.408l.675-1.277h1.961v9.047h-1.229v-7.77Z" fill="#000" stroke-width="0"/>
        <path d="M336.078,409.37v-1.166c.52,0,.87-.064,1.049-.193.32-.227.48-.59.48-1.09,0-.387-.116-.701-.348-.943-.229-.246-.525-.369-.891-.369-.341,0-.604.092-.791.275-.179.188-.313.504-.401.949h-1.223c.126-.852.387-1.476.78-1.872s.944-.595,1.65-.595c.714,0,1.295.234,1.746.703.45.465.675,1.064.675,1.799,0,.828-.295,1.473-.886,1.934.675.441,1.013,1.158,1.013,2.15,0,.812-.246,1.477-.738,1.992s-1.124.773-1.893.773c-.981,0-1.709-.4-2.184-1.201-.197-.336-.321-.801-.374-1.395h1.187c.063.438.217.772.461,1.005.244.232.563.349.957.349.397,0,.726-.146.986-.439.26-.301.391-.682.391-1.143,0-.609-.195-1.043-.585-1.301-.229-.148-.582-.223-1.06-.223Z" fill="#000" stroke-width="0"/>
      </g>
    </g>
    <g id="communes-2018">
      <g id="communes-2018-2" data-name="communes-2018">
        <rect x="544.842" y="166.802" width="206.516" height="206.516" fill="none" stroke-width="0"/>
        <path d="M648.1,166.802c57.028,0,103.258,46.23,103.259,103.257,0,57.028-46.23,103.258-103.257,103.259-57.028,0-103.258-46.23-103.259-103.257,0-31.844,14.692-61.906,39.817-81.471l63.441,81.47v-103.258Z" fill="#ff7c63" stroke="#fff" stroke-linejoin="bevel" stroke-width=".5"/>
        <path d="M584.659,188.589c18.133-14.12,40.458-21.788,63.441-21.788v103.258l-63.441-81.47Z" fill="#c71e1d" stroke="#fff" stroke-linejoin="bevel" stroke-width=".5"/>
        <image width="1227" height="1775" transform="translate(497.16 -14.72) scale(.24)" xlink:href="velo-Mesa_de_trabajo_1-interactions-3.png"/>
        <g isolation="isolate">
          <path d="M677.731,316.23c-.68-.249-1.184-.604-1.511-1.065-.328-.461-.492-1.013-.492-1.657,0-.971.349-1.787,1.047-2.449.698-.661,1.626-.992,2.786-.992,1.165,0,2.103.339,2.813,1.015.71.677,1.065,1.501,1.065,2.472,0,.619-.162,1.158-.487,1.616-.324.459-.818.812-1.479,1.061.819.267,1.443.698,1.871,1.293.427.595.641,1.305.641,2.13,0,1.141-.404,2.1-1.211,2.877-.807.777-1.87,1.165-3.186,1.165s-2.38-.39-3.186-1.17c-.807-.78-1.211-1.753-1.211-2.918,0-.868.22-1.594.66-2.18.44-.586,1.067-.985,1.88-1.197ZM676.875,319.617c0,.468.111.92.333,1.357.221.437.55.776.987,1.015.437.24.907.36,1.411.36.783,0,1.429-.252,1.939-.756.51-.504.765-1.144.765-1.921,0-.789-.262-1.441-.787-1.957-.526-.516-1.183-.774-1.971-.774-.771,0-1.41.255-1.917.765-.507.51-.76,1.147-.76,1.912ZM677.403,313.453c0,.632.204,1.147.61,1.548s.934.601,1.584.601c.632,0,1.149-.199,1.552-.596.404-.397.606-.884.606-1.461,0-.601-.208-1.106-.624-1.516-.415-.41-.933-.615-1.552-.615-.625,0-1.144.2-1.557.601s-.619.88-.619,1.438Z" fill="#fff" stroke-width="0"/>
          <path d="M685.825,320.382l1.575-.146c.133.741.388,1.278.765,1.611.377.334.859.501,1.448.501.504,0,.945-.115,1.324-.346.38-.231.691-.538.934-.924.243-.385.446-.906.61-1.561s.246-1.323.246-2.003c0-.073-.003-.182-.009-.328-.328.522-.776.946-1.343,1.27-.567.325-1.182.487-1.843.487-1.105,0-2.039-.401-2.804-1.202s-1.147-1.857-1.147-3.168c0-1.353.399-2.443,1.198-3.268.798-.825,1.798-1.238,2.999-1.238.868,0,1.662.234,2.38.701.72.468,1.266,1.133,1.639,1.998.374.865.56,2.117.56,3.756,0,1.706-.185,3.064-.555,4.074s-.921,1.78-1.652,2.308c-.732.528-1.589.792-2.572.792-1.044,0-1.897-.29-2.558-.869-.661-.579-1.059-1.394-1.193-2.444ZM692.535,314.491c0-.941-.251-1.687-.751-2.24-.502-.552-1.103-.828-1.808-.828-.728,0-1.362.298-1.903.892-.54.595-.81,1.366-.81,2.312,0,.85.257,1.54.77,2.071.512.531,1.145.797,1.898.797.759,0,1.382-.265,1.871-.797.488-.531.732-1.267.732-2.208Z" fill="#fff" stroke-width="0"/>
          <path d="M696.258,313.326c0-.953.24-1.763.719-2.431.479-.668,1.174-1.001,2.085-1.001.838,0,1.531.299,2.08.897.55.598.824,1.477.824,2.636,0,1.129-.278,1.998-.833,2.608-.556.61-1.24.915-2.053.915-.807,0-1.479-.3-2.017-.901-.536-.601-.805-1.508-.805-2.722ZM699.108,311.023c-.406,0-.745.176-1.015.528-.271.352-.406.999-.406,1.939,0,.856.137,1.458.41,1.807.273.349.61.523,1.011.523.413,0,.754-.176,1.025-.528.27-.352.405-.995.405-1.93,0-.862-.137-1.467-.41-1.816-.273-.349-.613-.523-1.02-.523ZM699.117,323.96l7.302-14.066h1.329l-7.274,14.066h-1.357ZM704.889,320.336c0-.959.24-1.771.719-2.435s1.178-.997,2.094-.997c.838,0,1.531.299,2.081.897.549.598.824,1.477.824,2.636,0,1.129-.277,1.998-.833,2.608-.555.61-1.242.915-2.062.915-.807,0-1.479-.302-2.017-.906-.536-.604-.805-1.51-.805-2.718ZM707.748,318.033c-.413,0-.754.176-1.024.528-.271.352-.406.999-.406,1.939,0,.85.137,1.451.41,1.803.273.352.61.528,1.011.528.419,0,.763-.176,1.033-.528.271-.352.406-.995.406-1.93,0-.862-.137-1.467-.41-1.816-.273-.349-.613-.523-1.02-.523Z" fill="#fff" stroke-width="0"/>
        </g>
        <g isolation="isolate">
          <path d="M611.76,213.341h-1.639v-10.443c-.395.377-.912.753-1.552,1.129-.641.377-1.216.659-1.726.847v-1.584c.916-.431,1.717-.953,2.404-1.566.686-.613,1.171-1.208,1.457-1.784h1.056v13.401Z" fill="#fff" stroke-width="0"/>
          <path d="M620.746,213.341h-1.639v-10.443c-.395.377-.912.753-1.552,1.129-.641.377-1.216.659-1.726.847v-1.584c.916-.431,1.717-.953,2.404-1.566.686-.613,1.171-1.208,1.457-1.784h1.056v13.401Z" fill="#fff" stroke-width="0"/>
          <path d="M625.252,203.199c0-.953.24-1.763.719-2.431.479-.668,1.174-1.001,2.085-1.001.838,0,1.531.299,2.08.897.55.598.824,1.477.824,2.636,0,1.129-.278,1.998-.833,2.608-.556.61-1.24.915-2.053.915-.807,0-1.479-.3-2.017-.901-.536-.601-.805-1.508-.805-2.722ZM628.102,200.895c-.406,0-.745.176-1.015.528-.271.352-.406.999-.406,1.939,0,.856.137,1.458.41,1.807.273.349.61.523,1.011.523.413,0,.754-.176,1.025-.528.27-.352.405-.995.405-1.93,0-.862-.137-1.467-.41-1.816-.273-.349-.613-.523-1.02-.523ZM628.111,213.832l7.302-14.066h1.329l-7.274,14.066h-1.357ZM633.883,210.209c0-.959.24-1.771.719-2.435s1.178-.997,2.094-.997c.838,0,1.531.299,2.081.897.549.598.824,1.477.824,2.636,0,1.129-.277,1.998-.833,2.608-.555.61-1.242.915-2.062.915-.807,0-1.479-.302-2.017-.906-.536-.604-.805-1.51-.805-2.718ZM636.742,207.905c-.413,0-.754.176-1.024.528-.271.352-.406.999-.406,1.939,0,.85.137,1.451.41,1.803.273.352.61.528,1.011.528.419,0,.763-.176,1.033-.528.271-.352.406-.995.406-1.93,0-.862-.137-1.467-.41-1.816-.273-.349-.613-.523-1.02-.523Z" fill="#fff" stroke-width="0"/>
        </g>
      </g>
      <g>
        <path d="M638.305,412.4h3.032v1.283h-5.468l2.826-3.803c.277-.379.511-.707.699-.984.188-.277.331-.51.43-.697.2-.367.3-.697.3-.99,0-.422-.133-.775-.4-1.061s-.598-.428-.991-.428c-.823,0-1.294.541-1.413,1.623h-1.224c.196-1.906,1.063-2.859,2.6-2.859.742,0,1.364.262,1.867.785.506.523.759,1.172.759,1.945,0,.492-.117.975-.354,1.447-.119.246-.294.538-.524.876s-.521.737-.873,1.198l-1.266,1.664Z" fill="#000" stroke-width="0"/>
        <path d="M642.725,409.102c0-1.441.302-2.592.906-3.451.542-.777,1.197-1.166,1.968-1.166s1.425.389,1.967,1.166c.604.859.907,2.029.907,3.51s-.303,2.645-.907,3.504c-.542.777-1.195,1.166-1.962,1.166s-1.424-.389-1.973-1.166c-.604-.859-.906-2.047-.906-3.562ZM643.932,409.107c0,1.004.156,1.838.47,2.502.312.652.712.979,1.197.979.481,0,.88-.326,1.196-.979.316-.648.475-1.467.475-2.455s-.158-1.809-.475-2.461c-.316-.648-.715-.973-1.196-.973-.479,0-.876.324-1.192.973-.316.645-.475,1.449-.475,2.414Z" fill="#000" stroke-width="0"/>
        <path d="M651.024,405.914h-1.408l.676-1.277h1.961v9.047h-1.229v-7.77Z" fill="#000" stroke-width="0"/>
        <path d="M655.828,408.979c-.598-.469-.896-1.107-.896-1.916,0-.734.227-1.348.681-1.84.457-.492,1.024-.738,1.703-.738.675,0,1.237.246,1.688.738.45.488.675,1.104.675,1.846,0,.777-.297,1.412-.891,1.904.326.195.583.48.77.855.189.375.285.797.285,1.266,0,.801-.236,1.457-.707,1.969-.472.512-1.074.768-1.809.768-.753,0-1.373-.258-1.861-.773-.493-.516-.738-1.164-.738-1.945,0-1.016.367-1.727,1.102-2.133ZM655.934,411.064c0,.418.13.777.391,1.078.264.297.583.445.96.445.372,0,.69-.146.954-.439.264-.297.396-.652.396-1.066,0-.418-.132-.773-.396-1.066s-.582-.439-.954-.439c-.369,0-.688.146-.955.439-.264.293-.396.643-.396,1.049ZM656.087,407.057c0,.387.117.711.354.973.238.266.527.398.864.398.334,0,.62-.133.859-.398s.359-.584.359-.955-.12-.689-.359-.955-.525-.398-.859-.398-.62.133-.859.398-.358.578-.358.938Z" fill="#000" stroke-width="0"/>
      </g>
    </g>
  </g>
<style>
#g-velo-Mesa_de_trabajo_1-interactions-img rect, #g-velo-Mesa_de_trabajo_1-interactions-img circle, #g-velo-Mesa_de_trabajo_1-interactions-img path, #g-velo-Mesa_de_trabajo_1-interactions-img line, #g-velo-Mesa_de_trabajo_1-interactions-img polyline, #g-velo-Mesa_de_trabajo_1-interactions-img polygon { vector-effect: non-scaling-stroke; }
</style>
</svg>
